<svg width="24" height="24" viewBox="0 0 24 24" fill="none" xmlns="http://www.w3.org/2000/svg">
<path d="M2 22H22" stroke="#0956A9" stroke-width="1.5" stroke-linecap="round" stroke-linejoin="round"/>
<path d="M3.11 22V13C3.11 11.34 4.6 10 6.44 10H17.55C19.39 10 20.88 11.34 20.88 13V22" stroke="#0956A9" stroke-width="1.5" stroke-linecap="round" stroke-linejoin="round"/>
<path d="M5.56 10V7.17C5.56 5.97 6.64 5 7.98 5H16.03C17.36 5 18.44 5.97 18.44 7.17V10" stroke="#0956A9" stroke-width="1.5" stroke-linecap="round" stroke-linejoin="round"/>
<path d="M3.53 13.9805L3.9 13.9905C4.64 14.0005 5.23 14.6005 5.23 15.3405V15.6705C5.23 16.4105 5.83 17.0205 6.58 17.0205C7.32 17.0205 7.93 16.4205 7.93 15.6705V15.3605C7.93 14.6205 8.53 14.0105 9.28 14.0105C10.02 14.0105 10.63 14.6105 10.63 15.3605V15.6705C10.63 16.4105 11.23 17.0205 11.98 17.0205C12.72 17.0205 13.33 16.4205 13.33 15.6705V15.3605C13.33 14.6205 13.93 14.0105 14.68 14.0105C15.42 14.0105 16.03 14.6105 16.03 15.3605V15.6705C16.03 16.4105 16.63 17.0205 17.38 17.0205C18.12 17.0205 18.73 16.4205 18.73 15.6705V15.3605C18.73 14.6205 19.33 14.0105 20.08 14.0105H20.53" stroke="#0956A9" stroke-width="1.5" stroke-linecap="round" stroke-linejoin="round"/>
<path d="M8 5V3" stroke="#0956A9" stroke-width="1.5" stroke-linecap="round" stroke-linejoin="round"/>
<path d="M16 5V3" stroke="#0956A9" stroke-width="1.5" stroke-linecap="round" stroke-linejoin="round"/>
<path d="M12 5V2" stroke="#0956A9" stroke-width="1.5" stroke-linecap="round" stroke-linejoin="round"/>
</svg>
