<svg width="22" height="20" viewBox="0 0 22 20" fill="none" xmlns="http://www.w3.org/2000/svg">
<path d="M3.49989 6.0759V15.7188C3.49989 17.3757 4.84304 18.7188 6.49989 18.7188H15.4999C17.1568 18.7188 18.4999 17.3757 18.4999 15.7188V6.0759M3.49989 6.0759L0.499893 8.21875L3.49989 6.0759ZM3.49989 6.0759L10.9999 0.71875L18.4999 6.0759M18.4999 6.0759L21.4999 8.21875L18.4999 6.0759Z" fill="#0956A9"/>
<path d="M3.49989 6.0759V15.7188C3.49989 17.3756 4.84304 18.7188 6.49989 18.7188H15.4999C17.1568 18.7188 18.4999 17.3756 18.4999 15.7188V6.0759M3.49989 6.0759L0.499893 8.21875M3.49989 6.0759L10.9999 0.71875L18.4999 6.0759M18.4999 6.0759L21.4999 8.21875" stroke="#0956A9" stroke-width="0.927751" stroke-linecap="round" stroke-linejoin="round"/>
</svg>
