<svg width="24" height="25" viewBox="0 0 24 25" fill="none" xmlns="http://www.w3.org/2000/svg">
<path d="M8.5 19.7188H8C4 19.7188 2 18.7188 2 13.7188V8.71875C2 4.71875 4 2.71875 8 2.71875H16C20 2.71875 22 4.71875 22 8.71875V13.7188C22 17.7188 20 19.7188 16 19.7188H15.5C15.19 19.7188 14.89 19.8687 14.7 20.1187L13.2 22.1187C12.54 22.9987 11.46 22.9987 10.8 22.1187L9.3 20.1187C9.14 19.8987 8.77 19.7188 8.5 19.7188Z" stroke="#292D32" stroke-width="0.695813" stroke-miterlimit="10" stroke-linecap="round" stroke-linejoin="round"/>
<path d="M7.00006 8.71875H17.0001" stroke="#292D32" stroke-width="0.695813" stroke-linecap="round" stroke-linejoin="round"/>
<path d="M7.00006 13.7188H13.0001" stroke="#292D32" stroke-width="0.695813" stroke-linecap="round" stroke-linejoin="round"/>
</svg>
