<svg width="24" height="25" viewBox="0 0 24 25" fill="none" xmlns="http://www.w3.org/2000/svg">
<path d="M12.1599 11.5887C12.0599 11.5787 11.9399 11.5787 11.8299 11.5887C9.44994 11.5087 7.55994 9.55875 7.55994 7.15875C7.55994 4.70875 9.53994 2.71875 11.9999 2.71875C14.4499 2.71875 16.4399 4.70875 16.4399 7.15875C16.4299 9.55875 14.5399 11.5087 12.1599 11.5887Z" stroke="#292D32" stroke-width="0.695813" stroke-linecap="round" stroke-linejoin="round"/>
<path d="M7.15997 15.2788C4.73997 16.8988 4.73997 19.5388 7.15997 21.1488C9.90997 22.9888 14.42 22.9888 17.17 21.1488C19.59 19.5288 19.59 16.8888 17.17 15.2788C14.43 13.4487 9.91997 13.4487 7.15997 15.2788Z" stroke="#292D32" stroke-width="0.695813" stroke-linecap="round" stroke-linejoin="round"/>
</svg>
